<?xml version="1.0" encoding="UTF-8"?>
<svg xmlns="http://www.w3.org/2000/svg" xmlns:xlink="http://www.w3.org/1999/xlink" fill-opacity="1" color-rendering="auto" color-interpolation="auto" stroke="black" text-rendering="auto" stroke-linecap="square" width="765" stroke-miterlimit="10" stroke-opacity="1" shape-rendering="auto" fill="black" stroke-dasharray="none" font-weight="normal" stroke-width="1" height="285" font-family="'Dialog'" font-style="normal" stroke-linejoin="miter" font-size="12" stroke-dashoffset="0" image-rendering="auto">
  <!--Generated by ySVG-->
  <defs id="genericDefs"/>
  <g>
    <defs id="defs1">
      <linearGradient x1="206.5357" gradientUnits="userSpaceOnUse" x2="362.0357" y1="-142.5" y2="-112.5" id="linearGradient1" spreadMethod="pad">
        <stop stop-opacity="1" stop-color="rgb(232,238,247)" offset="0%"/>
        <stop stop-opacity="1" stop-color="rgb(183,201,227)" offset="100%"/>
      </linearGradient>
      <linearGradient x1="609.0357" gradientUnits="userSpaceOnUse" x2="764.5357" y1="-165" y2="-135" id="linearGradient2" spreadMethod="pad">
        <stop stop-opacity="1" stop-color="rgb(232,238,247)" offset="0%"/>
        <stop stop-opacity="1" stop-color="rgb(183,201,227)" offset="100%"/>
      </linearGradient>
      <clipPath clipPathUnits="userSpaceOnUse" id="clipPath1">
        <path d="M0 0 L765 0 L765 285 L0 285 L0 0 Z"/>
      </clipPath>
      <clipPath clipPathUnits="userSpaceOnUse" id="clipPath2">
        <path d="M0 -300 L765 -300 L765 -15 L0 -15 L0 -300 Z"/>
      </clipPath>
    </defs>
    <g fill="white" transform="translate(0,300)" stroke="white">
      <rect x="0" width="765" height="285" y="-300" clip-path="url(#clipPath2)" stroke="none"/>
    </g>
    <g fill="rgb(255,204,0)" transform="matrix(1,0,0,1,0,300)" stroke="rgb(255,204,0)">
      <rect x="0" width="151" height="30" y="-172.5" clip-path="url(#clipPath2)" stroke="none"/>
      <text x="43.499" y="-153.3457" clip-path="url(#clipPath2)" fill="black" font-family="sans-serif" stroke="none" xml:space="preserve">Distributor</text>
    </g>
    <g stroke-linecap="butt" transform="matrix(1,0,0,1,0,300)" stroke-miterlimit="1.45">
      <rect fill="none" x="0" width="151" height="30" y="-172.5" clip-path="url(#clipPath2)"/>
    </g>
    <g fill="rgb(255,204,0)" transform="matrix(1,0,0,1,0,300)" stroke="rgb(255,204,0)">
      <rect x="412.0357" width="145" height="30" y="-105" clip-path="url(#clipPath2)" stroke="none"/>
      <text x="462.8326" y="-85.8457" clip-path="url(#clipPath2)" fill="black" font-family="sans-serif" stroke="none" xml:space="preserve">Worker</text>
    </g>
    <g stroke-linecap="butt" transform="matrix(1,0,0,1,0,300)" stroke-miterlimit="1.45">
      <rect fill="none" x="412.0357" width="145" height="30" y="-105" clip-path="url(#clipPath2)"/>
    </g>
    <g fill="rgb(255,204,0)" transform="matrix(1,0,0,1,0,300)" stroke="rgb(255,204,0)">
      <rect x="412.0357" width="145" height="30" y="-165" clip-path="url(#clipPath2)" stroke="none"/>
      <text x="462.8326" y="-145.8457" clip-path="url(#clipPath2)" fill="black" font-family="sans-serif" stroke="none" xml:space="preserve">Worker</text>
    </g>
    <g stroke-linecap="butt" transform="matrix(1,0,0,1,0,300)" stroke-miterlimit="1.45">
      <rect fill="none" x="412.0357" width="145" height="30" y="-165" clip-path="url(#clipPath2)"/>
    </g>
    <g fill="rgb(255,204,0)" transform="matrix(1,0,0,1,0,300)" stroke="rgb(255,204,0)">
      <rect x="412.0357" width="145" height="30" y="-225" clip-path="url(#clipPath2)" stroke="none"/>
      <text x="462.8326" y="-205.8457" clip-path="url(#clipPath2)" fill="black" font-family="sans-serif" stroke="none" xml:space="preserve">Worker</text>
    </g>
    <g stroke-linecap="butt" transform="matrix(1,0,0,1,0,300)" stroke-miterlimit="1.45">
      <rect fill="none" x="412.0357" width="145" height="30" y="-225" clip-path="url(#clipPath2)"/>
    </g>
    <g fill="rgb(255,204,0)" transform="matrix(1,0,0,1,0,300)" stroke="rgb(255,204,0)">
      <rect x="412.0357" width="145" height="30" y="-45" clip-path="url(#clipPath2)" stroke="none"/>
      <text x="462.8326" y="-25.8457" clip-path="url(#clipPath2)" fill="black" font-family="sans-serif" stroke="none" xml:space="preserve">Worker</text>
    </g>
    <g stroke-linecap="butt" transform="matrix(1,0,0,1,0,300)" stroke-miterlimit="1.45">
      <rect fill="none" x="412.0357" width="145" height="30" y="-45" clip-path="url(#clipPath2)"/>
    </g>
    <g fill="url(#linearGradient1)" stroke-miterlimit="1.45" transform="matrix(1,0,0,1,0,300)" stroke-linecap="butt" stroke="url(#linearGradient1)">
      <path d="M206.5357 -142.5 L358.2857 -142.5 Q365.7857 -127.5 358.2857 -112.5 L206.5357 -112.5 Z" clip-path="url(#clipPath2)" stroke="none"/>
      <path fill="none" d="M206.5357 -142.5 L358.2857 -142.5 Q365.7857 -127.5 358.2857 -112.5 L206.5357 -112.5 Z" clip-path="url(#clipPath2)" stroke="black"/>
    </g>
    <g font-family="sans-serif" transform="matrix(1,0,0,1,0,300)">
      <text x="248.0455" xml:space="preserve" y="-123.3457" clip-path="url(#clipPath2)" stroke="none">Input queue</text>
    </g>
    <g fill="url(#linearGradient2)" stroke-miterlimit="1.45" transform="matrix(1,0,0,1,0,300)" stroke-linecap="butt" stroke="url(#linearGradient2)">
      <path d="M609.0357 -165 L760.7857 -165 Q768.2857 -150 760.7857 -135 L609.0357 -135 Z" clip-path="url(#clipPath2)" stroke="none"/>
      <path fill="none" d="M609.0357 -165 L760.7857 -165 Q768.2857 -150 760.7857 -135 L609.0357 -135 Z" clip-path="url(#clipPath2)" stroke="black"/>
    </g>
    <g font-family="sans-serif" transform="matrix(1,0,0,1,0,300)">
      <text x="645.2398" xml:space="preserve" y="-145.8457" clip-path="url(#clipPath2)" stroke="none">Output queue</text>
    </g>
    <g fill="rgb(255,204,0)" transform="matrix(1,0,0,1,0,300)" stroke="rgb(255,204,0)">
      <circle r="22.5" clip-path="url(#clipPath2)" cx="284.2857" cy="-277.5" stroke="none"/>
      <text x="272.1744" y="-273.3457" clip-path="url(#clipPath2)" fill="black" font-family="sans-serif" stroke="none" xml:space="preserve">lock</text>
    </g>
    <g stroke-linecap="butt" transform="matrix(1,0,0,1,0,300)" stroke-miterlimit="1.45">
      <circle fill="none" r="22.5" clip-path="url(#clipPath2)" cx="284.2857" cy="-277.5"/>
      <path fill="none" d="M151 -148.9286 L161 -148.9286 L191.5357 -82.5 L404.0088 -82.5" clip-path="url(#clipPath2)"/>
      <path d="M412.0088 -82.5 L400.0088 -87.5 L403.0088 -82.5 L400.0088 -77.5 Z" clip-path="url(#clipPath2)" stroke="none"/>
      <path fill="none" d="M151 -157.5 L404.0038 -157.5" clip-path="url(#clipPath2)"/>
      <path d="M412.0038 -157.5 L400.0038 -162.5 L403.0038 -157.5 L400.0038 -152.5 Z" clip-path="url(#clipPath2)" stroke="none"/>
      <path fill="none" d="M151 -161.7857 L161 -161.7857 L246.7857 -217.5 L403.9954 -217.5" clip-path="url(#clipPath2)"/>
      <path d="M411.9954 -217.5 L399.9954 -222.5 L402.9954 -217.5 L399.9954 -212.5 Z" clip-path="url(#clipPath2)" stroke="none"/>
      <path fill="none" d="M151 -144.6429 L161 -144.6429 L200.5357 -22.5 L404.0099 -22.5" clip-path="url(#clipPath2)"/>
      <path d="M412.0099 -22.5 L400.0099 -27.5 L403.0099 -22.5 L400.0099 -17.5 Z" clip-path="url(#clipPath2)" stroke="none"/>
      <path fill="none" d="M151 -153.2143 L161 -153.2143 L191.5357 -127.5 L198.5357 -127.5" clip-path="url(#clipPath2)"/>
      <path d="M206.5357 -127.5 L194.5357 -132.5 L197.5357 -127.5 L194.5357 -122.5 Z" clip-path="url(#clipPath2)" stroke="none"/>
      <path fill="none" stroke-dasharray="6,2" d="M359.942 -116.25 L372.0357 -116.25 L397.0357 -37.5 L404.0064 -37.5" clip-path="url(#clipPath2)"/>
      <path stroke-dasharray="6,2" d="M412.0064 -37.5 L400.0064 -42.5 L403.0064 -37.5 L400.0064 -32.5 Z" clip-path="url(#clipPath2)" stroke="none"/>
      <text x="307.2053" y="-45.3301" clip-path="url(#clipPath2)" font-family="sans-serif" stroke-dasharray="6,2" stroke="none" xml:space="preserve">automatically</text>
      <path fill="none" stroke-dasharray="6,2" d="M359.942 -138.75 L372.0357 -138.75 L397.0357 -202.5 L404.0064 -202.5" clip-path="url(#clipPath2)"/>
      <path stroke-dasharray="6,2" d="M412.0064 -202.5 L400.0064 -207.5 L403.0064 -202.5 L400.0064 -197.5 Z" clip-path="url(#clipPath2)" stroke="none"/>
      <path fill="none" stroke-dasharray="6,2" d="M361.817 -131.25 L372.0357 -131.25 L397.0357 -142.5 L404.0064 -142.5" clip-path="url(#clipPath2)"/>
      <path stroke-dasharray="6,2" d="M412.0064 -142.5 L400.0064 -147.5 L403.0064 -142.5 L400.0064 -137.5 Z" clip-path="url(#clipPath2)" stroke="none"/>
      <path fill="none" stroke-dasharray="6,2" d="M361.817 -123.75 L372.0357 -123.75 L397.0357 -97.5 L404.0064 -97.5" clip-path="url(#clipPath2)"/>
      <path stroke-dasharray="6,2" d="M412.0064 -97.5 L400.0064 -102.5 L403.0064 -97.5 L400.0064 -92.5 Z" clip-path="url(#clipPath2)" stroke="none"/>
      <path fill="none" stroke-dasharray="6,2" d="M557.0357 -90 L567.0357 -90 L594.0357 -144 L601.0064 -144" clip-path="url(#clipPath2)"/>
      <path stroke-dasharray="6,2" d="M609.0064 -144 L597.0064 -149 L600.0064 -144 L597.0064 -139 Z" clip-path="url(#clipPath2)" stroke="none"/>
      <path fill="none" stroke-dasharray="6,2" d="M557.0357 -150 L601.0103 -150" clip-path="url(#clipPath2)"/>
      <path stroke-dasharray="6,2" d="M609.0103 -150 L597.0103 -155 L600.0103 -150 L597.0103 -145 Z" clip-path="url(#clipPath2)" stroke="none"/>
      <path fill="none" stroke-dasharray="6,2" d="M557.0357 -210 L567.0357 -210 L594.0357 -156 L601.0064 -156" clip-path="url(#clipPath2)"/>
      <path stroke-dasharray="6,2" d="M609.0064 -156 L597.0064 -161 L600.0064 -156 L597.0064 -151 Z" clip-path="url(#clipPath2)" stroke="none"/>
      <path fill="none" stroke-dasharray="6,2" d="M557.0357 -30 L567.0357 -30 L594.0357 -138 L601.0064 -138" clip-path="url(#clipPath2)"/>
      <path stroke-dasharray="6,2" d="M609.0064 -138 L597.0064 -143 L600.0064 -138 L597.0064 -133 Z" clip-path="url(#clipPath2)" stroke="none"/>
      <text x="595.7857" y="-121.8613" clip-path="url(#clipPath2)" font-family="sans-serif" stroke-dasharray="6,2" stroke="none" xml:space="preserve">automatically</text>
      <path fill="none" d="M151 -166.0714 L161 -166.0714 L246.7857 -240 L567.0357 -240 L594.0357 -162 L601.0064 -162" clip-path="url(#clipPath2)"/>
      <path d="M609.0064 -162 L597.0064 -167 L600.0064 -162 L597.0064 -157 Z" clip-path="url(#clipPath2)" stroke="none"/>
      <path fill="none" d="M151 -170.3571 L161 -170.3571 L246.7857 -277.5 L253.7857 -277.5" clip-path="url(#clipPath2)"/>
      <path d="M261.7857 -277.5 L249.7857 -282.5 L252.7857 -277.5 L249.7857 -272.5 Z" clip-path="url(#clipPath2)" stroke="none"/>
    </g>
  </g>
</svg>
