<?xml version="1.0" encoding="UTF-8"?>
<svg xmlns="http://www.w3.org/2000/svg" xmlns:xlink="http://www.w3.org/1999/xlink" fill-opacity="1" color-rendering="auto" color-interpolation="auto" stroke="black" text-rendering="auto" stroke-linecap="square" width="553" stroke-miterlimit="10" stroke-opacity="1" shape-rendering="auto" fill="black" stroke-dasharray="none" font-weight="normal" stroke-width="1" height="281" font-family="'Dialog'" font-style="normal" stroke-linejoin="miter" font-size="12" stroke-dashoffset="0" image-rendering="auto">
  <!--Generated by ySVG-->
  <defs id="genericDefs"/>
  <g>
    <defs id="defs1">
      <linearGradient x1="153.5357" gradientUnits="userSpaceOnUse" x2="256.0357" y1="-142.5" y2="-112.5" id="linearGradient1" spreadMethod="pad">
        <stop stop-opacity="1" stop-color="rgb(232,238,247)" offset="0%"/>
        <stop stop-opacity="1" stop-color="rgb(183,201,227)" offset="100%"/>
      </linearGradient>
      <linearGradient x1="450.0357" gradientUnits="userSpaceOnUse" x2="552.5357" y1="-165" y2="-135" id="linearGradient2" spreadMethod="pad">
        <stop stop-opacity="1" stop-color="rgb(232,238,247)" offset="0%"/>
        <stop stop-opacity="1" stop-color="rgb(183,201,227)" offset="100%"/>
      </linearGradient>
      <clipPath clipPathUnits="userSpaceOnUse" id="clipPath1">
        <path d="M0 0 L553 0 L553 281 L0 281 L0 0 Z"/>
      </clipPath>
      <clipPath clipPathUnits="userSpaceOnUse" id="clipPath2">
        <path d="M0 -296 L553 -296 L553 -15 L0 -15 L0 -296 Z"/>
      </clipPath>
    </defs>
    <g fill="white" transform="translate(0,296)" stroke="white">
      <rect x="0" width="553" height="281" y="-296" clip-path="url(#clipPath2)" stroke="none"/>
    </g>
    <g fill="rgb(255,204,0)" transform="matrix(1,0,0,1,0,296)" stroke="rgb(255,204,0)">
      <rect x="0" width="98" height="30" y="-172.5" clip-path="url(#clipPath2)" stroke="none"/>
      <text x="16.999" y="-153.3457" clip-path="url(#clipPath2)" fill="black" font-family="sans-serif" stroke="none" xml:space="preserve">Distributor</text>
    </g>
    <g stroke-linecap="butt" transform="matrix(1,0,0,1,0,296)" stroke-miterlimit="1.45">
      <rect fill="none" x="0" width="98" height="30" y="-172.5" clip-path="url(#clipPath2)"/>
    </g>
    <g fill="rgb(255,204,0)" transform="matrix(1,0,0,1,0,296)" stroke="rgb(255,204,0)">
      <rect x="306.0357" width="92" height="30" y="-105" clip-path="url(#clipPath2)" stroke="none"/>
      <text x="330.3326" y="-85.8457" clip-path="url(#clipPath2)" fill="black" font-family="sans-serif" stroke="none" xml:space="preserve">Worker</text>
    </g>
    <g stroke-linecap="butt" transform="matrix(1,0,0,1,0,296)" stroke-miterlimit="1.45">
      <rect fill="none" x="306.0357" width="92" height="30" y="-105" clip-path="url(#clipPath2)"/>
    </g>
    <g fill="rgb(255,204,0)" transform="matrix(1,0,0,1,0,296)" stroke="rgb(255,204,0)">
      <rect x="306.0357" width="92" height="30" y="-165" clip-path="url(#clipPath2)" stroke="none"/>
      <text x="330.3326" y="-145.8457" clip-path="url(#clipPath2)" fill="black" font-family="sans-serif" stroke="none" xml:space="preserve">Worker</text>
    </g>
    <g stroke-linecap="butt" transform="matrix(1,0,0,1,0,296)" stroke-miterlimit="1.45">
      <rect fill="none" x="306.0357" width="92" height="30" y="-165" clip-path="url(#clipPath2)"/>
    </g>
    <g fill="rgb(255,204,0)" transform="matrix(1,0,0,1,0,296)" stroke="rgb(255,204,0)">
      <rect x="306.0357" width="92" height="30" y="-225" clip-path="url(#clipPath2)" stroke="none"/>
      <text x="330.3326" y="-205.8457" clip-path="url(#clipPath2)" fill="black" font-family="sans-serif" stroke="none" xml:space="preserve">Worker</text>
    </g>
    <g stroke-linecap="butt" transform="matrix(1,0,0,1,0,296)" stroke-miterlimit="1.45">
      <rect fill="none" x="306.0357" width="92" height="30" y="-225" clip-path="url(#clipPath2)"/>
    </g>
    <g fill="rgb(255,204,0)" transform="matrix(1,0,0,1,0,296)" stroke="rgb(255,204,0)">
      <rect x="306.0357" width="92" height="30" y="-45" clip-path="url(#clipPath2)" stroke="none"/>
      <text x="330.3326" y="-25.8457" clip-path="url(#clipPath2)" fill="black" font-family="sans-serif" stroke="none" xml:space="preserve">Worker</text>
    </g>
    <g stroke-linecap="butt" transform="matrix(1,0,0,1,0,296)" stroke-miterlimit="1.45">
      <rect fill="none" x="306.0357" width="92" height="30" y="-45" clip-path="url(#clipPath2)"/>
    </g>
    <g fill="url(#linearGradient1)" stroke-miterlimit="1.45" transform="matrix(1,0,0,1,0,296)" stroke-linecap="butt" stroke="url(#linearGradient1)">
      <path d="M153.5357 -142.5 L252.2857 -142.5 Q259.7857 -127.5 252.2857 -112.5 L153.5357 -112.5 Z" clip-path="url(#clipPath2)" stroke="none"/>
      <path fill="none" d="M153.5357 -142.5 L252.2857 -142.5 Q259.7857 -127.5 252.2857 -112.5 L153.5357 -112.5 Z" clip-path="url(#clipPath2)" stroke="black"/>
    </g>
    <g font-family="sans-serif" transform="matrix(1,0,0,1,0,296)">
      <text x="168.5455" xml:space="preserve" y="-123.3457" clip-path="url(#clipPath2)" stroke="none">Input queue</text>
    </g>
    <g fill="url(#linearGradient2)" stroke-miterlimit="1.45" transform="matrix(1,0,0,1,0,296)" stroke-linecap="butt" stroke="url(#linearGradient2)">
      <path d="M450.0357 -165 L548.7857 -165 Q556.2857 -150 548.7857 -135 L450.0357 -135 Z" clip-path="url(#clipPath2)" stroke="none"/>
      <path fill="none" d="M450.0357 -165 L548.7857 -165 Q556.2857 -150 548.7857 -135 L450.0357 -135 Z" clip-path="url(#clipPath2)" stroke="black"/>
    </g>
    <g font-family="sans-serif" transform="matrix(1,0,0,1,0,296)">
      <text x="459.7398" xml:space="preserve" y="-145.8457" clip-path="url(#clipPath2)" stroke="none">Output queue</text>
    </g>
    <g fill="rgb(255,204,0)" transform="matrix(1,0,0,1,0,296)" stroke="rgb(255,204,0)">
      <ellipse rx="19.5" ry="20.5" clip-path="url(#clipPath2)" cx="204.7857" cy="-275.5" stroke="none"/>
      <text x="192.6744" y="-271.3457" clip-path="url(#clipPath2)" fill="black" font-family="sans-serif" stroke="none" xml:space="preserve">lock</text>
    </g>
    <g stroke-linecap="butt" transform="matrix(1,0,0,1,0,296)" stroke-miterlimit="1.45">
      <ellipse rx="19.5" fill="none" ry="20.5" clip-path="url(#clipPath2)" cx="204.7857" cy="-275.5"/>
      <path fill="none" d="M98 -148.9286 L108 -148.9286 L138.5357 -82.5 L297.9948 -82.5" clip-path="url(#clipPath2)"/>
      <path d="M305.9948 -82.5 L293.9948 -87.5 L296.9948 -82.5 L293.9948 -77.5 Z" clip-path="url(#clipPath2)" stroke="none"/>
      <path fill="none" d="M98 -157.5 L298.0103 -157.5" clip-path="url(#clipPath2)"/>
      <path d="M306.0103 -157.5 L294.0103 -162.5 L297.0103 -157.5 L294.0103 -152.5 Z" clip-path="url(#clipPath2)" stroke="none"/>
      <path fill="none" d="M98 -161.7857 L108 -161.7857 L170.2857 -217.5 L298.0026 -217.5" clip-path="url(#clipPath2)"/>
      <path d="M306.0026 -217.5 L294.0026 -222.5 L297.0026 -217.5 L294.0026 -212.5 Z" clip-path="url(#clipPath2)" stroke="none"/>
      <path fill="none" d="M98 -144.6429 L108 -144.6429 L138.5357 -22.5 L297.9948 -22.5" clip-path="url(#clipPath2)"/>
      <path d="M305.9948 -22.5 L293.9948 -27.5 L296.9948 -22.5 L293.9948 -17.5 Z" clip-path="url(#clipPath2)" stroke="none"/>
      <path fill="none" d="M98 -153.2143 L108 -153.2143 L138.5357 -127.5 L145.5357 -127.5" clip-path="url(#clipPath2)"/>
      <path d="M153.5357 -127.5 L141.5357 -132.5 L144.5357 -127.5 L141.5357 -122.5 Z" clip-path="url(#clipPath2)" stroke="none"/>
      <path fill="none" stroke-dasharray="6,2" d="M253.942 -116.25 L266.0357 -116.25 L291.0357 -37.5 L298.0064 -37.5" clip-path="url(#clipPath2)"/>
      <path stroke-dasharray="6,2" d="M306.0064 -37.5 L294.0064 -42.5 L297.0064 -37.5 L294.0064 -32.5 Z" clip-path="url(#clipPath2)" stroke="none"/>
      <text x="201.2053" y="-45.3301" clip-path="url(#clipPath2)" font-family="sans-serif" stroke-dasharray="6,2" stroke="none" xml:space="preserve">automatically</text>
      <path fill="none" stroke-dasharray="6,2" d="M253.942 -138.75 L266.0357 -138.75 L291.0357 -202.5 L298.0064 -202.5" clip-path="url(#clipPath2)"/>
      <path stroke-dasharray="6,2" d="M306.0064 -202.5 L294.0064 -207.5 L297.0064 -202.5 L294.0064 -197.5 Z" clip-path="url(#clipPath2)" stroke="none"/>
      <path fill="none" stroke-dasharray="6,2" d="M255.817 -131.25 L266.0357 -131.25 L291.0357 -142.5 L298.0064 -142.5" clip-path="url(#clipPath2)"/>
      <path stroke-dasharray="6,2" d="M306.0064 -142.5 L294.0064 -147.5 L297.0064 -142.5 L294.0064 -137.5 Z" clip-path="url(#clipPath2)" stroke="none"/>
      <path fill="none" stroke-dasharray="6,2" d="M255.817 -123.75 L266.0357 -123.75 L291.0357 -97.5 L298.0064 -97.5" clip-path="url(#clipPath2)"/>
      <path stroke-dasharray="6,2" d="M306.0064 -97.5 L294.0064 -102.5 L297.0064 -97.5 L294.0064 -92.5 Z" clip-path="url(#clipPath2)" stroke="none"/>
      <path fill="none" stroke-dasharray="6,2" d="M398.0357 -90 L408.0357 -90 L435.0357 -144 L442.0064 -144" clip-path="url(#clipPath2)"/>
      <path stroke-dasharray="6,2" d="M450.0064 -144 L438.0064 -149 L441.0064 -144 L438.0064 -139 Z" clip-path="url(#clipPath2)" stroke="none"/>
      <path fill="none" stroke-dasharray="6,2" d="M398.0357 -150 L442.0103 -150" clip-path="url(#clipPath2)"/>
      <path stroke-dasharray="6,2" d="M450.0103 -150 L438.0103 -155 L441.0103 -150 L438.0103 -145 Z" clip-path="url(#clipPath2)" stroke="none"/>
      <path fill="none" stroke-dasharray="6,2" d="M398.0357 -210 L408.0357 -210 L435.0357 -156 L442.0064 -156" clip-path="url(#clipPath2)"/>
      <path stroke-dasharray="6,2" d="M450.0064 -156 L438.0064 -161 L441.0064 -156 L438.0064 -151 Z" clip-path="url(#clipPath2)" stroke="none"/>
      <path fill="none" stroke-dasharray="6,2" d="M398.0357 -30 L408.0357 -30 L435.0357 -138 L442.0064 -138" clip-path="url(#clipPath2)"/>
      <path stroke-dasharray="6,2" d="M450.0064 -138 L438.0064 -143 L441.0064 -138 L438.0064 -133 Z" clip-path="url(#clipPath2)" stroke="none"/>
      <text x="436.7857" y="-121.8613" clip-path="url(#clipPath2)" font-family="sans-serif" stroke-dasharray="6,2" stroke="none" xml:space="preserve">automatically</text>
      <path fill="none" d="M98 -166.0714 L108 -166.0714 L170.2857 -240 L408.0357 -240 L435.0357 -162 L442.0064 -162" clip-path="url(#clipPath2)"/>
      <path d="M450.0064 -162 L438.0064 -167 L441.0064 -162 L438.0064 -157 Z" clip-path="url(#clipPath2)" stroke="none"/>
      <path fill="none" d="M98 -170.3571 L108 -170.3571 L170.2857 -275.5 L177.2857 -275.5" clip-path="url(#clipPath2)"/>
      <path d="M185.2857 -275.5 L173.2857 -280.5 L176.2857 -275.5 L173.2857 -270.5 Z" clip-path="url(#clipPath2)" stroke="none"/>
    </g>
  </g>
</svg>
